<svg width="45" height="64" viewBox="0 0 45 64" fill="none" xmlns="http://www.w3.org/2000/svg">
<path d="M44.1924 36.8419L24.8558 30.0459L44.0687 26.9677L42.9764 20.1512L23.6664 23.2454L37.0551 11.493L32.4999 6.30518L17.2201 19.7189L23.3463 2.28859L16.8333 0L10.1966 18.8837L7.32848 0.981581L0.51203 2.07391L3.61683 21.4514L3.63049 21.4476C4.34565 20.9661 5.10513 20.5538 5.89859 20.2165C6.15222 20.0598 6.42748 19.9412 6.71556 19.8645C6.82112 19.7867 6.93606 19.7224 7.05767 19.6733C7.41723 19.5353 7.81245 19.536 8.17428 19.3995C8.25476 19.3665 8.34334 19.3585 8.4284 19.3767C8.87396 19.2358 9.34044 19.1724 9.80747 19.1894C10.3406 19.129 10.8768 19.0988 11.4133 19.0991C14.9703 19.0991 18.2025 20.4061 20.592 22.5369C20.724 22.6302 20.8506 22.7266 20.9712 22.8259C21.1806 23.0087 21.3655 23.2177 21.5212 23.448C21.8695 23.8267 22.1945 24.2262 22.4944 24.6442C22.7599 24.9551 22.9958 25.2901 23.1991 25.6448C23.3628 25.9343 23.5014 26.2373 23.6133 26.5505C24.367 28.1388 24.758 29.8748 24.758 31.6329C24.758 31.9264 24.7466 32.2177 24.7254 32.506C24.7355 32.9878 24.6882 33.4691 24.5843 33.9396C24.5017 34.302 24.3971 34.6589 24.271 35.0085C24.0784 35.6574 23.831 36.2888 23.5314 36.8958L23.5557 36.9041C23.4631 37.0748 23.3653 37.2417 23.2636 37.4078C21.371 40.8274 17.8505 43.3246 13.6655 43.9929C13.2281 44.0627 12.7836 44.112 12.332 44.1408C11.6675 44.2311 10.8717 44.3077 10.2232 44.1211C9.90962 44.0953 9.59962 44.0591 9.29316 44.0126C9.19805 44.026 9.10112 44.0107 9.01477 43.9686C8.92981 43.9545 8.84485 43.9393 8.75989 43.9231C8.63475 43.9445 8.50618 43.9173 8.40033 43.8472C8.16442 43.7964 7.93154 43.7388 7.70094 43.6758L0 61.2259L6.32187 64L14.0494 46.393L16.8621 63.9332L23.6786 62.8417L20.5935 43.5992L32.6251 57.3011L37.8121 52.7497L24.0578 37.0831L41.903 43.3527L44.1924 36.8419Z" fill="#7049C3"/>
<path d="M7.14763 16.4539L5.43297 5.40336C5.36752 4.98151 4.97247 4.69259 4.55062 4.75805L4.15783 4.81899C3.73598 4.88445 3.44706 5.2795 3.51252 5.70135L5.22717 16.7519C5.29263 17.1737 5.68768 17.4626 6.10953 17.3972L6.50232 17.3362C6.92417 17.2708 7.21309 16.8757 7.14763 16.4539Z" fill="#FEF7CD"/>
</svg>
